<svg id="Capa_1" enable-background="new 0 0 512 512" height="512" viewBox="0 0 512 512" width="512" xmlns="http://www.w3.org/2000/svg"><g><g><path d="m315.314 18.496h-35.936c14.479 10.505 23.904 27.551 23.904 46.808v27.088h18.952c15.824 0 28.651 12.828 28.651 28.651v24.44h15.396c5.03 0 9.775 1.209 13.973 3.34v-65.386c.002-35.866-29.074-64.941-64.94-64.941z" fill="#fb8801"/><path d="m145.717 145.483h15.396v-24.44c0-15.824 12.828-28.651 28.651-28.651h113.518v-27.088c0-31.924-25.88-57.804-57.804-57.804h-108.734c-2.761 0-5 2.239-5 5v136.323c4.198-2.131 8.943-3.34 13.973-3.34z" fill="#fe9901"/><path d="m145.717 145.483h15.396v-24.44c0-9.764 4.888-18.383 12.347-23.556v-84.987c0-2.761 2.239-5 5-5h-41.717c-2.761 0-5 2.239-5 5v136.323c4.199-2.131 8.944-3.34 13.974-3.34z" fill="#fb8801"/></g><g><path d="m98.802 304.991c-24.853 0-45 20.147-45 45v144.509c0 5.523 4.477 10 10 10h141.366v-199.509z" fill="#f3f0f3"/><path d="m95.634 494.5v-144.509c0-24.853 20.147-45 45-45h-41.832c-24.853 0-45 20.147-45 45v144.509c0 5.523 4.477 10 10 10h41.832c-5.523 0-10-4.477-10-10z" fill="#e2dee2"/><path d="m413.198 304.991h-106.366v199.509h141.366c5.523 0 10-4.477 10-10v-144.509c0-24.853-20.147-45-45-45z" fill="#f3f0f3"/></g><g fill="#f3f0f3"><path d="m350.045 361.09c2.105-1.222 3.024-3.783 2.177-6.065l-32.202-86.68c-4.101 2.942-8.521 5.465-13.188 7.53v88.098l15.976 12.932z"/><path d="m191.98 268.344-32.202 86.68c-.848 2.282.071 4.843 2.177 6.065l27.237 15.813 15.976-12.932v-88.097c-4.667-2.064-9.087-4.587-13.188-7.529z"/></g><g fill="#e2dee2"><path d="m350.677 399.46-43.845-35.489v140.529l45.247-99.076c.948-2.075.371-4.528-1.402-5.964z"/><path d="m161.323 399.46c-1.773 1.435-2.35 3.889-1.402 5.964l45.247 99.076v-140.529z"/></g><path d="m306.832 337.992-22.287-20.7v11.188c0 1.705-.869 3.293-2.306 4.212l-23.545 15.062c-1.643 1.051-3.746 1.051-5.389 0l-23.545-15.062c-1.436-.919-2.306-2.507-2.306-4.212v-11.188l-22.287 20.7v-.001 166.509h101.664v-166.509z" fill="#8ac9fe"/><path d="m256 290.78-28.545 26.513v11.188c0 1.705.869 3.293 2.306 4.212l23.545 15.062c1.643 1.051 3.746 1.051 5.389 0l23.545-15.062c1.436-.919 2.306-2.507 2.306-4.212v-11.188z" fill="#fe646f"/><path d="m277.03 282.164h-42.06c-10.608 0-20.684-2.253-29.801-6.28v62.109l50.831-47.213 50.832 47.213v-62.109c-9.118 4.027-19.194 6.28-29.802 6.28z" fill="#60b7ff"/><g><g><path d="m258.155 346.913c-.645.413-1.39.63-2.155.63s-1.511-.218-2.155-.63l-12.187-7.796-12.905 165.383h54.493l-12.905-165.384z" fill="#fd8087"/></g></g><g><path d="m258.694 347.755c-1.643 1.051-3.746 1.051-5.389 0l-11.736-7.508-12.816 164.253h20.753l12.391-158.794z" fill="#fe646f"/></g><g><path d="m250.306 322.322c-1.437-.919-2.306-2.507-2.306-4.212v-19.9l-20.545 19.082v11.188c0 1.705.869 3.293 2.306 4.212l23.545 15.062c1.643 1.051 3.746 1.051 5.389 0l15.727-10.061c-.195-.092-.387-.192-.571-.31z" fill="#fd4755"/></g><path d="m277.03 282.164h-42.06c-10.608 0-20.684-2.253-29.801-6.28v62.109l50.831-47.213 50.832 47.213v-62.109c-9.118 4.027-19.194 6.28-29.802 6.28z" fill="#60b7ff"/><g fill="#ffbd86"><path d="m161.114 208.308v-62.825h-15.396c-17.075 0-30.917 13.842-30.917 30.917v9.33c0 17.075 13.842 30.917 30.917 30.917h15.878c-.309-2.739-.482-5.518-.482-8.339z"/><path d="m366.283 145.483h-15.396v62.825c0 2.821-.173 5.6-.481 8.339h15.878c17.075 0 30.917-13.842 30.917-30.917v-9.33c-.001-17.075-13.843-30.917-30.918-30.917z"/></g><g><path d="m277.03 282.164h-42.06c-40.789 0-73.856-33.066-73.856-73.856v-87.265c0-15.824 12.828-28.651 28.651-28.651h132.47c15.824 0 28.651 12.828 28.651 28.651v87.265c0 40.79-33.066 73.856-73.856 73.856z" fill="#fed2a4"/></g><g><path d="m192.228 208.308v-87.265c0-15.824 12.828-28.651 28.651-28.651h-31.114c-15.824 0-28.651 12.828-28.651 28.651v87.265c0 40.789 33.066 73.856 73.856 73.856h31.114c-40.79 0-73.856-33.066-73.856-73.856z" fill="#ffbd86"/></g><g><g><circle cx="115.93" cy="430.584" fill="#b5adb6" r="25.416"/></g><g><path d="m111.122 430.584c0-10.368 6.211-19.279 15.112-23.233-3.15-1.399-6.635-2.183-10.304-2.183-14.037 0-25.416 11.379-25.416 25.416s11.379 25.416 25.416 25.416c3.669 0 7.154-.784 10.304-2.183-8.901-3.954-15.112-12.865-15.112-23.233z" fill="#a79ba7"/></g></g><g><path d="m211 186.871c4.142 0 7.5-3.358 7.5-7.5v-21.462c0-4.142-3.358-7.5-7.5-7.5s-7.5 3.358-7.5 7.5v21.462c0 4.142 3.358 7.5 7.5 7.5z"/><path d="m301 186.871c4.142 0 7.5-3.358 7.5-7.5v-21.462c0-4.142-3.358-7.5-7.5-7.5s-7.5 3.358-7.5 7.5v21.462c0 4.142 3.358 7.5 7.5 7.5z"/><path d="m244.704 208.333h11.296c4.142 0 7.5-3.358 7.5-7.5s-3.358-7.5-7.5-7.5h-1.187l8.364-27.602c1.201-3.964-1.039-8.151-5.003-9.353s-8.152 1.038-9.353 5.003l-11.296 37.277c-.688 2.272-.26 4.736 1.154 6.644 1.416 1.906 3.651 3.031 6.025 3.031z"/><path d="m215.723 233.303c10.766 10.766 25.07 16.695 40.277 16.695s29.511-5.929 40.277-16.695c2.929-2.929 2.929-7.678 0-10.606-2.929-2.929-7.678-2.929-10.606 0-16.36 16.36-42.98 16.36-59.341 0-2.929-2.929-7.678-2.929-10.606 0-2.93 2.928-2.93 7.678-.001 10.606z"/><path d="m458.198 418.5c4.142 0 7.5-3.358 7.5-7.5v-61.009c0-28.949-23.551-52.5-52.5-52.5h-15.802c-9.486-18.742-28.924-31.628-51.326-31.628h-11.617c11.203-11.182 19.179-25.596 22.373-41.715h9.456c21.183 0 38.417-17.234 38.417-38.417v-9.331c0-13.236-6.728-24.929-16.944-31.841v-16.559c0-4.142-3.358-7.5-7.5-7.5s-7.5 3.358-7.5 7.5v10.539c-2.106-.359-4.266-.556-6.473-.556h-7.896v-16.94c0-19.934-16.217-36.151-36.151-36.151h-11.452v-19.588c0-14.747-4.919-28.364-13.195-39.308h17.726c31.673 0 57.441 25.768 57.441 57.441v9.563c0 4.142 3.358 7.5 7.5 7.5s7.5-3.358 7.5-7.5v-9.563c0-39.944-32.497-72.441-72.441-72.441h-33.616c-10.372-6.94-22.829-10.996-36.219-10.996h-108.735c-6.893 0-12.5 5.607-12.5 12.5v132.059c-10.216 6.912-16.944 18.605-16.944 31.841v9.331c0 21.183 17.234 38.417 38.417 38.417h9.456c3.194 16.119 11.17 30.533 22.373 41.715h-11.616c-22.403 0-41.84 12.886-51.326 31.628h-15.802c-28.949 0-52.5 23.551-52.5 52.5v144.509c0 9.649 7.851 17.5 17.5 17.5h55.198c4.142 0 7.5-3.358 7.5-7.5s-3.358-7.5-7.5-7.5h-55.198c-1.378 0-2.5-1.122-2.5-2.5v-144.509c0-20.678 16.822-37.5 37.5-37.5h10.672c-.677 3.523-1.045 7.154-1.045 10.872v75.178c-14.547 3.404-25.416 16.474-25.416 32.044 0 18.15 14.766 32.916 32.916 32.916s32.916-14.766 32.916-32.916c0-15.569-10.869-28.639-25.416-32.044v-75.178c0-3.757.496-7.4 1.415-10.872h42.733l-14.831 39.922c-2.125 5.721.164 12.098 5.442 15.163l17.822 10.347-19.407 15.708c-4.434 3.588-5.875 9.719-3.506 14.908l40.401 88.461h-39.498c-4.142 0-7.5 3.358-7.5 7.5s3.358 7.5 7.5 7.5h294.198c9.649 0 17.5-7.851 17.5-17.5v-48.5c0-4.142-3.358-7.5-7.5-7.5s-7.5 3.358-7.5 7.5v48.5c0 1.378-1.122 2.5-2.5 2.5h-129.696l40.067-87.734v66.978c0 4.142 3.358 7.5 7.5 7.5h13.913c4.142 0 7.5-3.358 7.5-7.5s-3.358-7.5-7.5-7.5h-6.413v-73.201c0-12.407 10.093-22.5 22.5-22.5s22.5 10.093 22.5 22.5v73.201h-6.413c-4.142 0-7.5 3.358-7.5 7.5s3.358 7.5 7.5 7.5h13.913c4.142 0 7.5-3.358 7.5-7.5v-80.701c0-18.11-12.904-33.261-30-36.745v-35.436c0-3.717-.367-7.349-1.045-10.872h10.672c20.678 0 37.5 16.822 37.5 37.5v61.01c.002 4.142 3.36 7.5 7.502 7.5zm-99.812-210.192v-55.325h7.896c12.912 0 23.417 10.505 23.417 23.417v9.331c0 12.912-10.505 23.417-23.417 23.417h-7.918c.004-.281.022-.558.022-.84zm-224.54 222.276c0 9.879-8.037 17.916-17.916 17.916-9.878 0-17.916-8.037-17.916-17.916s8.037-17.916 17.916-17.916 17.916 8.037 17.916 17.916zm212.224-149.722c13.705 0 25.908 6.527 33.685 16.628h-40.905l-6.177-16.628zm-200.353-71.715c-12.912 0-23.417-10.505-23.417-23.417v-9.33c0-12.912 10.505-23.417 23.417-23.417h7.896v55.325c0 .281.018.559.021.839zm7.897-88.104v16.94h-7.896c-2.207 0-4.367.197-6.473.556v-123.539h106.235c27.738 0 50.304 22.566 50.304 50.304v19.588h-106.019c-19.934 0-36.151 16.217-36.151 36.151zm15 87.265v-87.265c0-11.663 9.488-21.151 21.151-21.151h132.47c11.663 0 21.151 9.488 21.151 21.151v87.265c0 36.589-29.767 66.356-66.356 66.356h-42.06c-36.589 0-66.356-29.767-66.356-66.356zm130.718 78.232v34.25l-33.512-31.126h11.211c7.732 0 15.21-1.099 22.301-3.124zm-53.151 3.124-33.512 31.126v-34.25c7.091 2.025 14.569 3.124 22.301 3.124zm-113.935 7.827c7.777-10.102 19.98-16.628 33.685-16.628h13.398l-6.177 16.628zm34.497 104.817c.001.002.001.003.002.004zm30.925 67.715-30.12-65.953 30.12-24.38zm0-109.63-9.179 7.43-20.947-12.161 28.265-76.083c.618.341 1.234.684 1.861 1.009zm24.148 136.607h-9.148v-155.738l8.354-7.76c.974 2.222 2.575 4.15 4.697 5.508l8.024 5.133zm15.045 0 11.212-143.689 1.191.762c2.046 1.309 4.391 1.963 6.736 1.963s4.69-.655 6.736-1.963l1.191-.762 11.212 143.689zm40.184-169.888-21.045 13.463-21.045-13.463v-6.55l21.045-19.546 21.045 19.547zm22.287 169.888h-9.148l-11.927-152.856 8.024-5.133c2.122-1.357 3.723-3.286 4.697-5.508l8.354 7.76zm16.861-217.421 28.265 76.083-20.946 12.161-9.179-7.43v-79.805c.626-.325 1.242-.668 1.86-1.009zm-1.861 190.444v-90.332l30.12 24.379zm74.238-111.225c-17.096 3.484-30 18.635-30 36.745v1.948c-.771-1.454-1.833-2.775-3.174-3.86l-19.406-15.708 17.822-10.347c5.278-3.065 7.566-9.441 5.441-15.163l-14.831-39.922h42.733c.92 3.472 1.415 7.115 1.415 10.872z"/></g></g></svg>