<svg id="Capa_1" enable-background="new 0 0 512 512" height="512" viewBox="0 0 512 512" width="512" xmlns="http://www.w3.org/2000/svg"><g><path d="m123.397 163.822c5.444-5.544 13.02-8.986 21.403-8.986h17.313v-23.184c0-15.247 12.404-27.651 27.651-27.651h132.47c15.247 0 27.651 12.404 27.651 27.651v23.184h17.315c8.383 0 15.96 3.442 21.403 8.986 1.542-3.978 2.397-8.299 2.397-12.822 0-10.01-4.15-19.046-10.815-25.5 6.665-6.454 10.815-15.49 10.815-25.5 0-19.606-15.894-35.5-35.5-35.5-.083 0-.165.006-.248.006 1.129-3.466 1.748-7.163 1.748-11.006 0-19.606-15.894-35.5-35.5-35.5-11.194 0-21.168 5.19-27.674 13.285-6.772-14.072-21.164-23.785-37.826-23.785s-31.054 9.713-37.826 23.785c-6.506-8.095-16.48-13.285-27.674-13.285-19.606 0-35.5 15.894-35.5 35.5 0 3.843.619 7.54 1.748 11.006-.083-.001-.165-.006-.248-.006-19.606 0-35.5 15.894-35.5 35.5 0 10.01 4.15 19.046 10.815 25.5-6.665 6.454-10.815 15.49-10.815 25.5 0 4.523.855 8.844 2.397 12.822z" fill="#554e56"/><g><path d="m217.803 30.848c-7.094-8.543-18.097-13.722-30.283-12.726-16.271 1.331-29.729 13.883-32.123 30.032-.855 5.766-.294 11.304 1.351 16.352-.083-.001-.165-.006-.248-.006-19.606 0-35.5 15.894-35.5 35.5 0 10.01 4.15 19.046 10.815 25.5-6.665 6.454-10.815 15.49-10.815 25.5 0 4.523.855 8.844 2.397 12.822 5.444-5.544 13.02-8.986 21.403-8.986h16.313v-23.184c0-3.46.613-6.776 1.737-9.847-1.194-3.551-1.851-7.35-1.851-11.304 0-17.946 13.317-32.783 30.608-35.166 2.694-.371 4.539-2.918 4.172-5.612l-.779-5.723c0-15.131 9.47-28.042 22.803-33.152z" fill="#433f43"/></g><g><path d="m98.802 304.991c-24.853 0-45 20.147-45 45v144.509c0 5.523 4.477 10 10 10h141.366v-199.509z" fill="#f3f0f3"/><path d="m95.634 494.5v-144.509c0-24.853 20.147-45 45-45h-41.832c-24.853 0-45 20.147-45 45v144.509c0 5.523 4.477 10 10 10h41.832c-5.523 0-10-4.477-10-10z" fill="#e2dee2"/><path d="m413.198 304.991h-106.366v199.509h141.366c5.523 0 10-4.477 10-10v-144.509c0-24.853-20.147-45-45-45z" fill="#f3f0f3"/></g><g fill="#f3f0f3"><path d="m159.808 344.294c-.875 2.167-.133 4.651 1.788 5.983l32.591 22.583 10.981-8.888v-88.08c-5.11-2.257-9.921-5.067-14.345-8.37z"/><path d="m350.404 350.277c1.921-1.331 2.664-3.816 1.788-5.983l-31.015-76.772c-4.423 3.303-9.235 6.113-14.345 8.37v88.08l10.981 8.888z"/></g><g fill="#e2dee2"><path d="m161.323 399.461c-1.773 1.435-2.35 3.888-1.402 5.964l45.247 99.076v-140.53z"/><path d="m350.677 399.461-43.845-35.489v140.528l45.247-99.076c.948-2.075.371-4.528-1.402-5.963z"/></g><g><path d="m286.309 281.559c.122-.015.246-.027.368-.043l-28.049 50.931c-1.14 2.07-4.115 2.07-5.256 0l-28.049-50.931c.122.016.246.027.369.043-7.214-.91-14.11-2.842-20.524-5.675v228.616h101.664v-228.616c-6.414 2.832-13.309 4.764-20.523 5.675z" fill="#eaf6ff"/></g><path d="m205.168 337.992v9.154l31.168 53.984v-92.086z" fill="#d8ecfe"/><g><g><path d="m251.67 427.689-46.502-80.543v157.354h101.664v-157.354l-46.502 80.543c-1.924 3.333-6.736 3.333-8.66 0z" fill="#26a6fe"/></g></g><g><g><path d="m205.168 347.146v157.354h31.168v-103.369z" fill="#0593fc"/></g></g><g fill="#8ac9fe"><path d="m225.323 281.516c-7.084-.925-13.85-2.848-20.155-5.633v62.109l33.911-31.497z"/><path d="m286.677 281.516-13.756 24.979 33.912 31.497v-62.109c-6.307 2.786-13.073 4.709-20.156 5.633z"/></g><path d="m277.03 282.164h-42.06c-3.272 0-6.487-.235-9.646-.648l28.049 50.931c1.14 2.07 4.115 2.07 5.256 0l28.049-50.931c-3.161.413-6.376.648-9.648.648z" fill="#883f2e"/><g fill="#a44f3e"><path d="m161.114 208.308v-53.473h-16.314c-16.569 0-30 13.431-30 30v11.165c0 16.569 13.431 30 30 30h18.462c-1.394-5.67-2.148-11.592-2.148-17.692z"/><path d="m367.2 154.835h-16.313v53.473c0 6.1-.754 12.022-2.148 17.692h18.461c16.569 0 30-13.431 30-30v-11.165c0-16.568-13.432-30-30-30z"/></g><g><path d="m277.03 282.164h-42.06c-40.789 0-73.856-33.066-73.856-73.856v-76.657c0-15.824 12.828-28.651 28.651-28.651h132.47c15.824 0 28.651 12.828 28.651 28.651v76.657c0 40.79-33.066 73.856-73.856 73.856z" fill="#bb5d4c"/></g><g><path d="m192.228 208.308v-76.657c0-15.824 12.828-28.651 28.651-28.651h-31.114c-15.824 0-28.651 12.828-28.651 28.651v76.657c0 40.789 33.066 73.856 73.856 73.856h31.114c-40.79 0-73.856-33.066-73.856-73.856z" fill="#a44f3e"/></g><g><g><circle cx="115.93" cy="430.584" fill="#b5adb6" r="25.416"/></g><g><path d="m111.122 430.584c0-10.368 6.211-19.279 15.112-23.233-3.15-1.399-6.635-2.183-10.304-2.183-14.037 0-25.416 11.379-25.416 25.416s11.379 25.416 25.416 25.416c3.669 0 7.154-.784 10.304-2.183-8.901-3.954-15.112-12.865-15.112-23.233z" fill="#a79ba7"/></g></g><g><path d="m458.198 369.5c4.142 0 7.5-3.358 7.5-7.5v-12.009c0-28.949-23.551-52.5-52.5-52.5h-15.802c-9.486-18.742-28.924-31.628-51.326-31.628h-11.62c8.985-8.97 15.895-20.02 19.925-32.362h12.825c20.678 0 37.5-16.822 37.5-37.5v-11.165c0-8.53-2.868-16.4-7.684-22.708.956-3.552 1.484-7.277 1.484-11.128 0-9.324-2.934-18.161-8.371-25.5 5.438-7.339 8.371-16.176 8.371-25.5 0-20.705-14.708-38.038-34.225-42.1.15-1.458.225-2.927.225-4.4 0-23.71-19.29-43-43-43-9.627 0-18.784 3.173-26.223 8.921-9.258-12.034-23.801-19.421-39.277-19.421s-30.019 7.387-39.277 19.421c-7.439-5.748-16.596-8.921-26.223-8.921-23.71 0-43 19.29-43 43 0 1.473.075 2.941.225 4.4-19.517 4.062-34.225 21.395-34.225 42.1 0 9.324 2.934 18.161 8.371 25.5-5.438 7.339-8.371 16.176-8.371 25.5 0 3.85.527 7.576 1.484 11.128-4.815 6.308-7.684 14.177-7.684 22.708v11.164c0 20.678 16.822 37.5 37.5 37.5h12.825c4.03 12.342 10.94 23.392 19.925 32.362h-11.62c-22.403 0-41.84 12.886-51.326 31.628h-15.802c-28.949 0-52.5 23.551-52.5 52.5v144.51c0 9.649 7.851 17.5 17.5 17.5h66.198c4.142 0 7.5-3.358 7.5-7.5s-3.358-7.5-7.5-7.5h-66.198c-1.378 0-2.5-1.122-2.5-2.5v-144.509c0-20.678 16.822-37.5 37.5-37.5h10.672c-.677 3.523-1.045 7.154-1.045 10.872v75.178c-14.547 3.404-25.416 16.474-25.416 32.044 0 18.15 14.766 32.916 32.916 32.916s32.916-14.766 32.916-32.916c0-15.569-10.869-28.639-25.416-32.044v-75.178c0-3.757.496-7.4 1.415-10.872h39.722l-11.713 28.994c-2.204 5.456-.365 11.606 4.471 14.957l24.366 16.884-25.087 20.306c-4.434 3.588-5.875 9.719-3.506 14.908l40.401 88.46h-28.498c-4.142 0-7.5 3.358-7.5 7.5s3.358 7.5 7.5 7.5h283.198c9.649 0 17.5-7.851 17.5-17.5v-97.5c0-4.142-3.358-7.5-7.5-7.5s-7.5 3.358-7.5 7.5v97.5c0 1.378-1.122 2.5-2.5 2.5h-129.696l40.067-87.734v66.978c0 4.142 3.358 7.5 7.5 7.5h13.913c4.142 0 7.5-3.358 7.5-7.5s-3.358-7.5-7.5-7.5h-6.413v-73.201c0-12.407 10.093-22.5 22.5-22.5s22.5 10.093 22.5 22.5v73.201h-6.413c-4.142 0-7.5 3.358-7.5 7.5s3.358 7.5 7.5 7.5h13.913c4.142 0 7.5-3.358 7.5-7.5v-80.701c0-18.11-12.904-33.261-30-36.745v-35.436c0-3.717-.367-7.349-1.045-10.872h10.672c20.678 0 37.5 16.822 37.5 37.5v12.01c.002 4.142 3.36 7.5 7.502 7.5zm-324.352 61.084c0 9.879-8.037 17.916-17.916 17.916s-17.916-8.037-17.916-17.916 8.037-17.916 17.916-17.916 17.916 8.037 17.916 17.916zm212.224-149.722c13.705 0 25.908 6.527 33.685 16.628h-38.382l-6.718-16.628zm-1.581 64.388-26.328 18.243-3.83-3.1v-79.823c1.114-.578 2.212-1.183 3.296-1.811zm45.211-160.415v11.165c0 12.407-10.093 22.5-22.5 22.5h-9.475c.42-3.342.661-6.738.661-10.192v-45.973h8.813c12.407 0 22.501 10.094 22.501 22.5zm-244.9 33.665c-12.407 0-22.5-10.093-22.5-22.5v-11.165c0-12.407 10.093-22.5 22.5-22.5h8.813v45.973c0 3.454.241 6.85.661 10.192zm23.814-10.192v-76.657c0-11.663 9.488-21.151 21.151-21.151h73.235c4.142 0 7.5-3.358 7.5-7.5s-3.358-7.5-7.5-7.5h-73.235c-19.934 0-36.151 16.217-36.151 36.151v15.684h-8.814c-5.837 0-11.367 1.342-16.298 3.731 0-.022-.002-.044-.002-.067 0-7.642 3.03-14.785 8.532-20.112 1.459-1.413 2.283-3.357 2.283-5.388s-.824-3.976-2.283-5.388c-5.502-5.327-8.532-12.47-8.532-20.112 0-15.41 12.512-27.953 27.911-28 .098.003.195.006.293.006 2.438-.019 4.679-1.131 6.101-3.076 1.421-1.946 1.821-4.456 1.074-6.747-.915-2.809-1.379-5.73-1.379-8.683 0-15.439 12.561-28 28-28 8.518 0 16.474 3.821 21.828 10.483 1.613 2.007 4.143 3.043 6.701 2.753 2.558-.293 4.787-1.879 5.903-4.199 5.712-11.867 17.906-19.536 31.068-19.536s25.356 7.669 31.067 19.537c1.117 2.32 3.345 3.906 5.903 4.199 2.555.292 5.088-.746 6.701-2.753 5.354-6.663 13.31-10.483 21.828-10.483 15.439 0 28 12.561 28 28 0 2.953-.464 5.875-1.379 8.683-.747 2.291-.347 4.801 1.074 6.747 1.413 1.934 3.664 3.076 6.057 3.076.106 0 .218-.002.335-.006 15.399.047 27.913 12.59 27.913 28 0 7.642-3.03 14.785-8.532 20.112-1.459 1.413-2.283 3.357-2.283 5.388s.824 3.976 2.283 5.388c5.502 5.327 8.532 12.47 8.532 20.112 0 .023-.002.044-.002.067-4.931-2.39-10.461-3.731-16.298-3.731h-8.813v-15.684c0-19.934-16.217-36.151-36.151-36.151h-24.235c-4.142 0-7.5 3.358-7.5 7.5s3.358 7.5 7.5 7.5h24.235c11.663 0 21.151 9.488 21.151 21.151v76.657c0 36.589-29.767 66.356-66.356 66.356h-42.06c-36.589-.001-66.356-29.768-66.356-66.357zm130.718 78.223v34.259l-17.017-15.805 9.153-16.62c2.669-.48 5.291-1.099 7.864-1.834zm-25.704 3.133-17.628 32.008-17.628-32.008zm-43.942 15.321-17.017 15.805v-34.259c2.573.735 5.195 1.353 7.864 1.834zm-97.44-7.494c7.777-10.102 19.98-16.628 33.685-16.628h11.415l-6.718 16.628zm34.497 104.817c.001.002.001.003.002.004zm30.925 67.715-30.12-65.953 30.12-24.38zm0-109.63-3.83 3.1-26.328-18.243 26.862-66.49c1.084.627 2.181 1.233 3.296 1.811zm101.664 136.607h-86.664v-121.864l32.507 56.303c2.259 3.914 6.306 6.25 10.825 6.25s8.566-2.336 10.825-6.25l32.507-56.303zm0-151.864-43.332 75.053-43.332-75.053v-3.874l24.477-22.734 9.658 17.537c1.846 3.352 5.371 5.435 9.198 5.435s7.352-2.083 9.198-5.435l9.658-17.537 24.477 22.734v3.874zm15 124.887v-90.332l30.12 24.38zm74.238-111.225c-17.096 3.484-30 18.635-30 36.745v1.948c-.771-1.454-1.833-2.775-3.174-3.86l-25.087-20.306 24.366-16.884c4.837-3.351 6.676-9.501 4.472-14.957l-11.713-28.994h39.722c.92 3.472 1.415 7.115 1.415 10.872v35.436z"/><path d="m211 186.871c4.142 0 7.5-3.358 7.5-7.5v-21.462c0-4.142-3.358-7.5-7.5-7.5s-7.5 3.358-7.5 7.5v21.462c0 4.142 3.358 7.5 7.5 7.5z"/><path d="m301 186.871c4.142 0 7.5-3.358 7.5-7.5v-21.462c0-4.142-3.358-7.5-7.5-7.5s-7.5 3.358-7.5 7.5v21.462c0 4.142 3.358 7.5 7.5 7.5z"/><path d="m251.444 208.333h4.556c4.142 0 7.5-3.358 7.5-7.5s-3.358-7.5-7.5-7.5h-1.187l8.364-27.602c1.201-3.964-1.039-8.151-5.003-9.353-3.963-1.203-8.151 1.038-9.353 5.003l-9.341 30.826c-1.143 3.77-.423 7.909 1.924 11.073s6.1 5.053 10.04 5.053z"/><path d="m215.723 234.303c10.766 10.766 25.07 16.695 40.277 16.695s29.511-5.929 40.277-16.695c2.929-2.929 2.929-7.678 0-10.606-2.929-2.929-7.678-2.929-10.606 0-16.36 16.36-42.98 16.36-59.341 0-2.929-2.929-7.678-2.929-10.606 0-2.93 2.928-2.93 7.678-.001 10.606z"/><circle cx="256" cy="356.5" r="7.5"/><circle cx="256" cy="382.5" r="7.5"/></g></g></svg>