<svg id="Capa_1" enable-background="new 0 0 512 512" height="512" viewBox="0 0 512 512" width="512" xmlns="http://www.w3.org/2000/svg"><g><g><g><g><path d="m322.184 67.5v24.892h18.952c15.824 0 28.651 12.828 28.651 28.651v24.44h15.396c5.03 0 9.775 1.209 13.973 3.34v-60.327c0-38.66-31.34-70-70-70h-32.373c15.362 10.866 25.401 28.757 25.401 49.004z" fill="#433f43"/><path d="m164.618 145.483h15.396v-24.44c0-15.824 12.828-28.651 28.651-28.651h113.518v-24.892c0-33.137-26.863-60-60-60h-61.539c-27.614 0-50 22.386-50 50v91.323c4.199-2.131 8.944-3.34 13.974-3.34z" fill="#554e56"/><path d="m164.618 145.483h15.396v-24.44c0-9.808 4.931-18.461 12.446-23.626v-39.917c0-27.614 22.386-50 50-50h-41.816c-27.614 0-50 22.386-50 50v91.323c4.199-2.131 8.944-3.34 13.974-3.34z" fill="#433f43"/></g><path d="m432.099 304.991h-314.396c-23.847 0-43.349 18.552-44.89 42.009h107.088c2.206 0 4 1.794 4 4v153.5h283.198c5.523 0 10-4.477 10-10v-144.509c0-24.853-20.147-45-45-45z" fill="#8ac9fe"/><g><path d="m118.186 346c2.021-22.982 21.307-41.009 44.814-41.009h-45.297c-23.507 0-42.793 18.027-44.814 41.009z" fill="#60b7ff"/></g><path d="m295.017 362.26-18.052 17.116c-1.157 1.097-2.971 1.097-4.128 0l-17.963-17.032-15.874 142.156h72z" fill="#fea613"/><g><path d="m272.837 379.376-17.963-17.032-15.874 142.156h23l13.9-124.479c-1.032.364-2.22.154-3.063-.645z" fill="#fe9901"/></g><g><path d="m274.901 330-32.448 20.566 30.384 28.81c1.157 1.097 2.971 1.097 4.128 0l30.384-28.81z" fill="#fe9901"/></g><g><path d="m242.453 350.566 30.384 28.81c1.157 1.097 2.971 1.097 4.128 0l13.744-13.032-29.307-27.788z" fill="#fb8801"/></g><path d="m295.931 282.164h-42.061c-13.887 0-26.873-3.839-37.97-10.504v90.282c0 2.365 2.609 3.8 4.606 2.534l54.395-34.476 54.394 34.476c1.997 1.266 4.606-.169 4.606-2.534v-90.282c-11.096 6.665-24.083 10.504-37.97 10.504z" fill="#8ac9fe"/><g><path d="m215.901 271.66v90.282c0 2.365 2.609 3.8 4.606 2.534l15.493-9.82v-74.682c-7.171-1.782-13.928-4.608-20.099-8.314z" fill="#60b7ff"/></g><path d="m295.931 282.164h-42.061c-1.247 0-2.487-.033-3.719-.094l24.813 47.93 24.815-47.936c-1.275.066-2.557.1-3.848.1z" fill="#ffbd86"/><g fill="#ffbd86"><path d="m180.015 208.308v-62.825h-15.396c-17.075 0-30.917 13.842-30.917 30.917v9.33c0 17.075 13.842 30.917 30.917 30.917h15.878c-.309-2.739-.482-5.518-.482-8.339z"/><path d="m385.184 145.483h-15.396v62.825c0 2.821-.173 5.6-.481 8.339h15.878c17.075 0 30.917-13.842 30.917-30.917v-9.33c-.001-17.075-13.843-30.917-30.918-30.917z"/></g><g><path d="m295.931 282.164h-42.061c-40.789 0-73.856-33.066-73.856-73.856v-87.265c0-15.824 12.828-28.651 28.651-28.651h132.47c15.824 0 28.651 12.828 28.651 28.651v87.265c.001 40.79-33.065 73.856-73.855 73.856z" fill="#fed2a4"/></g><g><path d="m211.228 208.308v-87.265c0-15.824 12.828-28.651 28.651-28.651h-31.213c-15.824 0-28.651 12.828-28.651 28.651v87.265c0 40.789 33.066 73.856 73.856 73.856h31.213c-40.79 0-73.856-33.066-73.856-73.856z" fill="#ffbd86"/></g></g><g><g><path d="m437.901 453h-86c-1.657 0-3-1.343-3-3v-54c0-1.657 1.343-3 3-3h86c1.657 0 3 1.343 3 3v54c0 1.657-1.343 3-3 3z" fill="#fff"/></g><g><path d="m379 450v-54c0-1.657 1.343-3 3-3h-30.099c-1.657 0-3 1.343-3 3v54c0 1.657 1.343 3 3 3h30.099c-1.657 0-3-1.343-3-3z" fill="#f3f0f3"/></g></g></g><g><g><path d="m184.901 504.5h-145c-2.761 0-5-2.239-5-5v-148.5c0-2.761 2.239-5 5-5h140c2.761 0 5 2.239 5 5z" fill="#eaf6ff"/></g><g><path d="m65 499.5v-148.5c0-2.761 2.239-5 5-5h-30.099c-2.761 0-5 2.239-5 5v148.5c0 2.761 2.239 5 5 5h30.099c-2.761 0-5-2.239-5-5z" fill="#d8ecfe"/></g></g><g><path d="m477.099 405.5c4.142 0 7.5-3.358 7.5-7.5v-48.009c0-28.949-23.551-52.5-52.5-52.5h-90.698v-21.774c17.443-11.808 30.09-30.189 34.326-51.569h9.456c21.183 0 38.417-17.234 38.417-38.417v-9.331c0-13.236-6.728-24.929-16.944-31.841v-56.063c0-42.734-34.766-77.5-77.5-77.5h-30.112c-10.605-6.942-23.265-10.996-36.86-10.996h-61.539c-31.706 0-57.5 25.794-57.5 57.5v87.059c-10.216 6.912-16.944 18.605-16.944 31.841v9.331c0 21.183 17.234 38.417 38.417 38.417h9.456c4.237 21.38 16.884 39.761 34.326 51.569v21.775h-12.4c-4.142 0-7.5 3.358-7.5 7.5s3.358 7.5 7.5 7.5h12.401v49.451c0 3.829 2.084 7.354 5.439 9.2 1.579.869 3.321 1.3 5.061 1.3 1.957 0 3.909-.546 5.621-1.631l17.011-10.782 5.474 5.19-14.716 131.78h-39.89v-43c0-4.142-3.358-7.5-7.5-7.5s-7.5 3.358-7.5 7.5v43h-135v-143.5h135v65.5c0 4.142 3.358 7.5 7.5 7.5s7.5-3.358 7.5-7.5v-68c0-6.893-5.607-12.5-12.5-12.5h-97.884c4.864-15.072 19.016-26.009 35.686-26.009h43.297c4.142 0 7.5-3.358 7.5-7.5s-3.358-7.5-7.5-7.5h-43.297c-25.001 0-45.962 17.57-51.215 41.009h-26.587c-6.893 0-12.5 5.607-12.5 12.5v148.5c0 6.893 5.607 12.5 12.5 12.5h427.198c9.649 0 17.5-7.851 17.5-17.5v-61.5c0-4.142-3.358-7.5-7.5-7.5s-7.5 3.358-7.5 7.5v61.5c0 1.378-1.122 2.5-2.5 2.5h-149.395l-14.818-131.867 5.383-5.104 17.01 10.782c3.234 2.049 7.327 2.176 10.682.331 3.355-1.846 5.439-5.371 5.439-9.2v-49.451h90.698c20.678 0 37.5 16.822 37.5 37.5v48.009c.001 4.142 3.359 7.5 7.501 7.5zm-114.812-273.908c-8.84-8.547-20.862-13.823-34.1-13.823-21.336 0-39.527 13.683-46.284 32.731h-14.003c-6.757-19.048-24.949-32.731-46.284-32.731-13.238 0-25.26 5.275-34.1 13.823v-10.549c0-11.663 9.488-21.151 21.151-21.151h132.469c11.663 0 21.151 9.488 21.151 21.151zm0 35.278c0 18.803-15.297 34.1-34.1 34.1s-34.101-15.297-34.101-34.1 15.297-34.101 34.101-34.101c18.803 0 34.1 15.297 34.1 34.101zm-106.571 0c0 18.803-15.297 34.1-34.101 34.1-18.803 0-34.1-15.297-34.1-34.1s15.297-34.101 34.1-34.101 34.101 15.297 34.101 34.101zm152.885 9.53v9.331c0 12.912-10.505 23.417-23.417 23.417h-7.918c.003-.281.021-.558.021-.839v-55.325h7.896c12.913-.001 23.418 10.504 23.418 23.416zm-79.444-150.404c34.462 0 62.5 28.038 62.5 62.5v50.043c-2.106-.359-4.266-.556-6.473-.556h-7.896v-16.94c0-19.934-16.217-36.151-36.151-36.151h-11.452v-17.392c0-15.642-5.363-30.046-14.326-41.504zm-164.538 183.151c-12.912 0-23.417-10.505-23.417-23.417v-9.33c0-12.912 10.505-23.417 23.417-23.417h7.896v55.325c0 .281.018.559.021.839zm7.896-88.104v16.94h-7.896c-2.207 0-4.367.197-6.473.556v-81.039c0-23.435 19.065-42.5 42.5-42.5h61.539c28.949 0 52.5 23.551 52.5 52.5v17.392h-106.018c-19.935 0-36.152 16.217-36.152 36.151zm15 87.265v-6.161c8.84 8.547 20.862 13.823 34.1 13.823 14.837 0 28.148-6.624 37.159-17.06l-2.465 10.353c-.532 2.232-.012 4.585 1.41 6.386s3.591 2.851 5.886 2.851h11.296c4.142 0 7.5-3.358 7.5-7.5s-3.358-7.5-7.5-7.5h-1.801l6.721-28.227c3.999 23.082 24.158 40.697 48.366 40.697 13.238 0 25.26-5.275 34.1-13.823v6.161c0 36.589-29.767 66.356-66.356 66.356h-42.061c-36.588 0-66.355-29.767-66.355-66.356zm75.014 81.356h24.87l-12.435 24.021zm32.674 62.084-20.302 19.25-20.302-19.25 20.302-12.868zm-71.802 2.014v-70.035c6.915 2.805 14.3 4.681 22.002 5.482l19.726 38.105zm23.983 143.238 13.27-118.84 7.021 6.657c2.026 1.922 4.626 2.883 7.226 2.883s5.199-.961 7.225-2.882l7.12-6.751 13.364 118.933zm37.384-169.625 19.765-38.181c7.654-.809 14.992-2.678 21.868-5.467v70.035z"/><path d="m315.178 240.805c2.929-2.929 2.929-7.678 0-10.606-2.929-2.929-7.678-2.929-10.606 0-7.933 7.933-18.47 12.302-29.67 12.302s-21.737-4.369-29.67-12.302c-2.929-2.929-7.678-2.929-10.606 0-2.929 2.929-2.929 7.678 0 10.606 10.766 10.766 25.07 16.695 40.276 16.695s29.51-5.929 40.276-16.695z"/><path d="m229.901 186.871c4.142 0 7.5-3.358 7.5-7.5v-21.462c0-4.142-3.358-7.5-7.5-7.5s-7.5 3.358-7.5 7.5v21.462c0 4.142 3.358 7.5 7.5 7.5z"/><path d="m319.901 150.408c-4.142 0-7.5 3.358-7.5 7.5v21.462c0 4.142 3.358 7.5 7.5 7.5s7.5-3.358 7.5-7.5v-21.462c0-4.142-3.358-7.5-7.5-7.5z"/><path d="m341.401 396v54c0 5.79 4.71 10.5 10.5 10.5h86c5.79 0 10.5-4.71 10.5-10.5v-54c0-5.79-4.71-10.5-10.5-10.5h-86c-5.79 0-10.5 4.71-10.5 10.5zm15 4.5h77v45h-77z"/><path d="m409.901 377.5c4.142 0 7.5-3.358 7.5-7.5s-3.358-7.5-7.5-7.5h-30c-4.142 0-7.5 3.358-7.5 7.5s3.358 7.5 7.5 7.5z"/><path d="m155.974 430.5h-90.584c-4.142 0-7.5 3.358-7.5 7.5s3.358 7.5 7.5 7.5h90.584c4.142 0 7.5-3.358 7.5-7.5s-3.358-7.5-7.5-7.5z"/><path d="m155.974 458.5h-90.584c-4.142 0-7.5 3.358-7.5 7.5s3.358 7.5 7.5 7.5h90.584c4.142 0 7.5-3.358 7.5-7.5s-3.358-7.5-7.5-7.5z"/><path d="m78.682 367.639c-4.142 0-7.5 3.358-7.5 7.5v5.792h-5.792c-4.142 0-7.5 3.358-7.5 7.5s3.358 7.5 7.5 7.5h5.792v5.792c0 4.142 3.358 7.5 7.5 7.5s7.5-3.358 7.5-7.5v-5.792h5.792c4.142 0 7.5-3.358 7.5-7.5s-3.358-7.5-7.5-7.5h-5.792v-5.792c0-4.142-3.358-7.5-7.5-7.5z"/><circle cx="128.474" cy="388.431" r="7.5"/><circle cx="151.474" cy="388.431" r="7.5"/></g></g></svg>